<svg xmlns="http://www.w3.org/2000/svg" width="80" height="80" viewBox="0 0 80 80"><path d="M48.405 8.96c.165.17.189.254.235.48l-.246.021c-1.067.104-2.072.363-2.797 1.21a14 14 0 0 0-.397.529c.218 0 .41-.069.618-.131 3.077-.874 6.99-.888 9.864.69q.466.285.88.64v.08l-.168.018c-1.952.202-3.267.71-4.872 1.822.64.139 1.251.181 1.904.19 2.203.061 4.344.63 6.334 1.571l.16.075a12.8 12.8 0 0 1 3.36 2.405l.242.226c1.906 1.81 3.298 4.536 3.366 7.194l-.003.294-.003.301-.003.224a7 7 0 0 1-1-.656c-1.334-1.054-3.102-1.893-4.838-1.902-.176.035-.176.035-.32.08l.102.098c2.786 2.667 4.618 6.414 4.712 10.317l.005.451.003.248.003.518.005.52c.021 1.514-.104 2.987-.619 4.422l-.072.21c-.298.834-.675 1.57-1.338 2.174l-.24.08.006-.216.016-.811.008-.347c.07-2.4-1.437-4.336-3.006-6.014a4 4 0 0 0-.624-.531c-.008.597 0 1.189.04 1.784.267 4.27-1.13 8.611-3.915 11.885l-.362.394a10 10 0 0 0-.418.49c-.886 1.01-2.261 1.926-3.586 2.165-.189-.034-.189-.034-.32-.08l.315-.459.098-.142q.323-.464.672-.907c1.307-1.736 1.638-3.659 1.645-5.79l.002-.248-.002-.232v-.21c.002-.173.002-.173-.091-.33a18 18 0 0 0-.79 1.41c-1.672 3.339-4.866 5.235-8.269 6.48l-.222.082c-1.757.624-3.578 1.058-5.384 1.51-1.413.355-2.784.712-4.078 1.398l-.213.112c-.71.386-1.347.856-1.984 1.35q-.432.33-.874.648l-.296.218-.21.154-.16-.08c1.062-2.387 3.438-3.635 5.586-4.918a25.6 25.6 0 0 0 3.854-2.76l.178-.154.462-.406.197-.171a10.4 10.4 0 0 0 1.163-1.189l.179-.203c2.49-2.875 4.376-7.162 4.461-10.995l.01-.325q.013-.47.018-.942l.006-.376c.018-1.118-.118-2.192-.658-3.19l-.082-.16a6 6 0 0 0-.814-1.168l.032.306.043.406.021.198.021.2.019.181.024.23.021.173a14 14 0 0 1 .077 1.488l.002.243.002.509q.002.381.006.76c.006 1.328-.091 2.63-.48 3.907l-.061.208a16.8 16.8 0 0 1-5.243 7.914l-.19.163a34 34 0 0 1-3.41 2.477l-.173.112a77 77 0 0 1-2.122 1.314c-2.398 1.429-4.773 2.904-6.826 4.814l-.186.171a8.9 8.9 0 0 0-2.736 6.23 6.4 6.4 0 0 1-.202 1.355h-.16l-.133-1.037-.045-.352c-.517-4.016-.078-6.894 2.366-10.144a21 21 0 0 1 .45-.549l.133-.165c.323-.389.685-.698 1.08-1.011.293-.237.57-.488.848-.742q.323-.288.659-.562a7 7 0 0 0-1.546.611l-.198.107a12.5 12.5 0 0 0-5.213 5.36l-.085.163c-1.262 2.464-1.534 5.106-1.59 7.83l-.005.178c-.035 1.702-.016 3.338.443 4.99a.85.85 0 0 1-.045.517c-1.645-1.858-2.646-3.936-3.261-6.317l-.086-.33c-.571-2.174-.048-3.987.47-6.122l.195-.811.061-.248c.123-.518.218-1.003.07-1.53l-.045-.165-.046-.171c-.624-2.546.866-5.621 2.114-7.782.213-.347.442-.677.685-1.002l.162-.216a18.7 18.7 0 0 1 2.613-2.741q.379-.336.747-.683.445-.421.91-.824c.277-.238.534-.496.789-.758.141-.136.141-.136.381-.296.136-.762-.093-1.504-.494-2.15a2 2 0 0 0-1.109-.691c-.493-.043-.822.23-1.197.522l-.211.15c-.219.195-.403.411-.595.634-.675.771-1.461 1.547-2.531 1.645-.877.008-1.637-.091-2.344-.667-.646-.637-.95-1.392-.986-2.296a1.36 1.36 0 0 1 .266-.824c.533-.418 1.2-.33 1.84-.32l-.021-.306c0-.533.146-1.083.512-1.48l.15-.134.074.163c.226.48.389.816.898 1.027.968.334 2.058.206 2.99-.192q.245-.123.486-.256c.19-.104.19-.104.432-.184.086-.178.086-.178.16-.4l.12-.24c.398-.928.323-2.019.181-2.995l-.034-.222c-.126-.814-.32-1.597-.954-2.168-.598-.414-1.509-.242-2.19-.12q-.242.045-.482.094l-.493.094-.32.062-.285.056c-.349.107-.643.259-.858.56l-.07.16-.074.16c-.31.813-.118 1.726.019 2.56a1.87 1.87 0 0 1-1.064-.904c-.272-.589-.307-1.094-.296-1.736l-.166.053c-1.123.333-1.123.333-1.677.072-.683-.595-1.238-1.28-1.355-2.205-.008-.45.091-.789.4-1.12.31-.184.634-.33.96-.48l.541-.27.422-.21q-1.072.058-2.139.187a8 8 0 0 1-1.061.053c.021-.536.075-1 .4-1.44.406-.334.81-.469 1.325-.534l.202-.029.434-.061q.597-.083 1.192-.173l.259-.038q1.534-.23 3.064-.491.47-.08.942-.157l.584-.098.27-.045c.581-.101 1.109-.21 1.557-.621l.163-.149q.275-.272.542-.55c1.056-1.058 2.37-1.731 3.79-2.174l-.024-.27c-.139-1.827.166-3.456 1.374-4.898 1.576-1.787 3.827-2.808 6.184-3.061.282-.014.562.002.843.014 1.678.08 2.832-.142 4.341-.877 1.834-.835 4.603-.834 6.325.291M39.28 20.48c-.581.786-.76 1.594-.64 2.56.096.344.23.646.4.96l.083.165c.08.15.08.15.235.315.194.048.194.048.4 0 .171-.173.171-.173.315-.405l.168-.245.157-.23c.64-.909 1.942-1.701 3.04-1.92-.163.89-.528 1.51-1.094 2.205-.43.542-.656 1.102-.584 1.795a5 5 0 0 0 .16.32l.32-.355.203-.224q.173-.194.333-.398c.411-.518.926-.851 1.48-1.2.442-.285.83-.573.992-1.101.051-.259.061-.52.077-.781l.01-.168.024-.411c.398.525.592.904.542 1.573-.173.523-.648.822-1.077 1.128-.875.642-1.851 1.405-2.08 2.53l-.024.211c.837-.309 1.592-.746 2.362-1.192a16 16 0 0 1 .752-.41c1.08-.549 1.848-1.163 2.261-2.349.213-.934.138-1.91-.376-2.728-.627-.866-1.504-1.328-2.552-1.509-2.123-.266-4.408.254-5.885 1.864m-7.728.741-.19.035-.624.117-.434.082-1.142.214-.931.173-1.923.36-.179.034c-.259.048-.515.098-.77.166.083.429.28.643.606.912.771.514 1.693.595 2.594.53 1.638-.331 2.845-1.286 3.76-2.64-.253-.126-.501-.03-.768.021M55.44 28.64l.173.069c1 .402 1.864.84 2.626 1.613l.147.142c.373.386.606.832.858 1.301.246.448.523.859.914 1.197h.16c.074-1.416-.206-2.747-1.131-3.87-.613-.643-1.426-.965-2.301-1.035-.57.018-1.064.157-1.45.584m-3.28 2c-.069.235-.094.362-.005.592l.118.202.133.226.144.24.29.498.144.248c1.686 2.899 1.531 5.552 1.338 8.795.781-.602 1.024-1.466 1.259-2.395l.07-.261c.494-1.885.65-3.914-.362-5.656-.755-1.109-1.805-1.854-2.968-2.488zm-9.04 1.28-.098.27-.371 1.014-.158.435a19 19 0 0 1-1.267 2.806q-.272.512-.534 1.032l-.216.422-.325.642c-.506.995-1.011 1.958-1.675 2.858l-.275.378-.141.192-.659.91-.779 1.077a74 74 0 0 0-1.475 2.101 11 11 0 0 1-.664.902l.08.16c.958-.602 1.784-1.315 2.61-2.083a14 14 0 0 1 .765-.653c.589-.474 1.131-1 1.675-1.522l.366-.346c1.899-1.824 2.832-4.17 3.248-6.728l.03-.187c.307-1.851.307-1.851.024-3.682zm-5.68 1.52-.195.39-.171.344-.438.885c-.891 1.829-2.176 3.341-3.773 4.605a26 26 0 0 0-.742.618 72 72 0 0 1-1.176.976 61 61 0 0 0-.746.626 72 72 0 0 1-1.176.976 61 61 0 0 0-.746.626 72 72 0 0 1-1.174.974q-.448.371-.89.75a13 13 0 0 1-.755.595c-.426.328-.738.734-1.059 1.16l-.099.13a13 13 0 0 0-1.061 1.619l-.08.144a4.2 4.2 0 0 0-.362 1.066 5.4 5.4 0 0 0 1.045-.725 38 38 0 0 1 1.534-1.245l.565-.445.424-.331.518-.414c.621-.496 1.277-.901 1.962-1.304.744-.438 1.467-.91 2.194-1.378l.158-.102c.934-.603 1.758-1.301 2.565-2.061l.19-.178c.53-.509.97-1.078 1.41-1.664l.106-.138a11.5 11.5 0 0 0 1.898-3.699l.082-.275c.213-.832.182-1.674.158-2.525z" fill="#450C6F"/></svg>