<?xml version="1.0" encoding="UTF-8"?>
<svg version="1.1" xmlns="http://www.w3.org/2000/svg" width="1000" height="1000">
<path d="M0 0 C2.06637222 2.13302939 2.36740619 3.17891723 2.9375 6 C1.92171875 6.08636719 0.9059375 6.17273438 -0.140625 6.26171875 C-13.48279398 7.5568854 -26.03703215 10.80585968 -35.10546875 21.3828125 C-36.81136698 23.55519387 -38.46196533 25.74924812 -40.0625 28 C-37.33875025 28 -34.95058444 27.12645685 -32.35351562 26.3737793 C6.11490836 15.44666331 55.03159341 15.26942934 90.9375 35 C94.81258639 37.38309183 98.50140542 40.01525682 101.9375 43 C101.9375 43.33 101.9375 43.66 101.9375 44 C100.89577637 44.10489746 100.89577637 44.10489746 99.83300781 44.21191406 C75.44302039 46.72943351 58.99500169 53.085617 38.9375 67 C46.93334614 68.73471235 54.58642819 69.257709 62.75 69.375 C90.28229852 70.13868882 117.05198974 77.24419763 141.9375 89 C142.92387451 89.465271 142.92387451 89.465271 143.93017578 89.93994141 C159.64449198 97.5069829 173.50069357 107.83804012 185.9375 120 C186.94168285 120.94380061 187.94690873 121.88649258 188.953125 122.828125 C212.77752528 145.45482088 230.16907874 179.52336063 231.03515625 212.74609375 C231.01775391 214.57333984 231.01775391 214.57333984 231 216.4375 C230.99097656 217.67371094 230.98195313 218.90992188 230.97265625 220.18359375 C230.95525391 221.57771484 230.95525391 221.57771484 230.9375 223 C226.44647656 220.57241976 222.44900879 217.95347061 218.44921875 214.7878418 C201.73920771 201.60443003 179.63826611 191.13431714 157.9375 191 C155.73499152 191.43487904 155.73499152 191.43487904 153.9375 192 C154.57026855 192.60134766 154.57026855 192.60134766 155.21582031 193.21484375 C190.03947945 226.54579042 212.94593181 273.39888071 214.11450195 322.1706543 C214.14110104 324.05509876 214.16122459 325.93964278 214.17578125 327.82421875 C214.183853 328.8469136 214.19192474 329.86960846 214.20024109 330.92329407 C214.21400824 333.08401841 214.22476298 335.24476383 214.23266602 337.40551758 C214.24409943 339.57029807 214.26441111 341.73505234 214.29418945 343.8996582 C214.55352898 362.81985272 212.99256746 381.24086592 206.5625 399.1875 C206.26142334 400.0527832 205.96034668 400.91806641 205.65014648 401.80957031 C201.92229075 412.23068848 197.20919724 421.41614112 188.9375 429 C187.9475 429.33 186.9575 429.66 185.9375 430 C185.96368408 429.10917725 185.98986816 428.21835449 186.0168457 427.30053711 C186.10330827 423.91755247 186.16533431 420.53578137 186.2121582 417.15209961 C186.23693045 415.70236405 186.27075955 414.25274811 186.31469727 412.8034668 C187.19974988 382.80538929 168.34438236 358.60629652 148.7265625 337.63671875 C146.20838894 335.07073177 143.9442149 333.0044766 140.9375 331 C140.8309302 338.47172694 140.93890002 345.8601957 141.4375 353.3125 C144.76853669 406.69311316 127.31443337 460.95194772 92.484375 501.8828125 C90.99389281 503.54059372 89.48812787 505.18480801 87.96484375 506.8125 C86.12882708 508.79355845 84.44705566 510.83839874 82.75 512.9375 C71.68392924 525.55894015 54.49344652 537.00483589 37.9375 540 C35.5703125 539.58984375 35.5703125 539.58984375 33.9375 539 C35.24673265 537.08103016 36.55918349 535.16445254 37.875 533.25 C38.48299438 532.36417236 38.48299438 532.36417236 39.10327148 531.46044922 C41.78551502 527.58189501 44.59408799 523.84092233 47.5 520.125 C63.83907713 498.42510873 67.97605138 474.38235095 68.0625 447.75 C68.06717285 446.72495361 68.0718457 445.69990723 68.07666016 444.64379883 C68.07456543 443.68368896 68.0724707 442.7235791 68.0703125 441.734375 C68.06918457 440.87038086 68.06805664 440.00638672 68.06689453 439.11621094 C68.07278292 436.94407197 68.07278292 436.94407197 66.9375 435 C63.37461829 440.76033846 60.07775524 446.57093167 57.05981445 452.6340332 C36.16391498 494.36740931 -3.75963324 518.05890829 -46.3125 533.625 C-47.22612305 533.96104248 -48.13974609 534.29708496 -49.08105469 534.64331055 C-71.04145941 542.44817727 -93.8144464 547.86114957 -116.39355469 553.52319336 C-134.06240824 557.96300697 -151.18331846 562.425806 -167.375 571 C-168.2510791 571.46148438 -169.1271582 571.92296875 -170.02978516 572.3984375 C-178.90266024 577.22165775 -186.85584327 583.11169306 -194.82568359 589.28222656 C-198.42080649 592.04311771 -202.08609217 594.70649927 -205.75 597.375 C-206.98334354 598.27827643 -208.21644646 599.18188159 -209.44921875 600.0859375 C-210.31160156 600.71757813 -211.17398438 601.34921875 -212.0625 602 C-212.7225 601.67 -213.3825 601.34 -214.0625 601 C-200.78296753 571.16010939 -171.08272986 555.54757995 -144.24609375 539.5234375 C-127.10160873 529.25698017 -111.07477453 518.20228398 -96.0625 505 C-95.32902344 504.36578125 -94.59554688 503.7315625 -93.83984375 503.078125 C-91.90210401 501.39849373 -89.98144232 499.70105445 -88.0625 498 C-87.25039063 497.29230469 -86.43828125 496.58460938 -85.6015625 495.85546875 C-80.31468335 491.1957119 -75.56667487 486.41079679 -71.0625 481 C-70.32644531 480.16339844 -69.59039063 479.32679688 -68.83203125 478.46484375 C-37.72543028 442.51174534 -14.14478682 388.94300341 -13.0625 341 C-13.02284229 339.6422462 -12.98294643 338.28449935 -12.94287109 336.92675781 C-12.83449324 333.00085742 -12.76445914 329.07547025 -12.71707153 325.14837646 C-12.69774363 323.58080157 -12.67359533 322.01327672 -12.64401245 320.44586182 C-12.41614117 306.47793727 -14.12894732 293.05016292 -20.875 280.5625 C-21.21466797 279.90636719 -21.55433594 279.25023437 -21.90429688 278.57421875 C-24.72895267 273.27078338 -28.06554057 268.49657936 -32.0625 264 C-31.92972656 265.25554687 -31.79695313 266.51109375 -31.66015625 267.8046875 C-31.48175653 269.49479016 -31.30337192 271.18489441 -31.125 272.875 C-31.03798828 273.69742187 -30.95097656 274.51984375 -30.86132812 275.3671875 C-30.77431641 276.1921875 -30.68730469 277.0171875 -30.59765625 277.8671875 C-30.519104 278.61081543 -30.44055176 279.35444336 -30.35961914 280.12060547 C-30.26156982 281.07080566 -30.16352051 282.02100586 -30.0625 283 C-29.98033234 283.71582245 -29.89816467 284.4316449 -29.81350708 285.16915894 C-29.1320121 291.38404115 -28.88776425 297.52369879 -28.859375 303.7734375 C-28.85367493 304.77726471 -28.84797485 305.78109192 -28.84210205 306.81533813 C-28.83271125 308.93140632 -28.82614183 311.04748874 -28.82226562 313.16357422 C-28.81263082 316.33198015 -28.78157891 319.49971638 -28.75 322.66796875 C-28.66291015 339.25408849 -29.89225343 355.55096494 -34.75 371.5 C-35.00491211 372.35835449 -35.25982422 373.21670898 -35.52246094 374.10107422 C-47.35171797 412.77581957 -70.1360353 446.87421201 -101.0625 473 C-101.85140625 473.67675781 -102.6403125 474.35351562 -103.453125 475.05078125 C-116.89706312 486.32966799 -131.30817063 496.51585444 -146.0625 506 C-146.77841309 506.46083984 -147.49432617 506.92167969 -148.23193359 507.39648438 C-156.98545367 513.01343579 -165.81667402 518.48634951 -174.75 523.8125 C-204.73590542 541.69133658 -234.42403024 560.11245012 -260.0625 584 C-260.82433594 584.70769531 -261.58617187 585.41539062 -262.37109375 586.14453125 C-283.9617111 606.91193616 -295.70663807 634.31884401 -296.58007812 664.03710938 C-296.80585296 669.92855468 -297.62217892 675.2795345 -299.0625 681 C-299.7225 681 -300.3825 681 -301.0625 681 C-301.61802467 676.68126856 -302.16915083 672.36200303 -302.71655273 668.04223633 C-302.9025775 666.57887357 -303.08971517 665.11565177 -303.27807617 663.65258789 C-309.73436634 613.46569231 -304.25978506 577.48745017 -273.703125 536.86328125 C-271.86428977 534.53622814 -269.9829288 532.25983344 -268.0625 530 C-267.51722656 529.32195313 -266.97195313 528.64390625 -266.41015625 527.9453125 C-262.38583907 523.07825596 -257.84169112 519.22608401 -252.90625 515.30078125 C-249.24578104 512.33922051 -245.78098522 509.18890361 -242.30078125 506.01953125 C-239.61637852 503.59747853 -236.86368216 501.28517492 -234.0625 499 C-240.9573512 500.82981876 -247.10396519 503.23604792 -253.375 506.625 C-254.60766602 507.28423462 -254.60766602 507.28423462 -255.86523438 507.95678711 C-284.18240624 523.36905549 -306.48550995 546.33839207 -321.0625 575 C-321.41151367 575.67498535 -321.76052734 576.3499707 -322.12011719 577.04541016 C-337.90127048 607.84411256 -341.29658196 640.85081946 -342 674.9375 C-342.01577087 675.67074368 -342.03154175 676.40398735 -342.04779053 677.15945053 C-342.49462369 698.44217979 -342.25197087 718.87159167 -336.515625 739.5480957 C-336.0445378 742.09719525 -336.22156455 743.57485297 -337.0625 746 C-357.61221806 722.78642959 -370.14094008 696.79853132 -377.82983398 667.04541016 C-378.18643812 665.66658342 -378.54695928 664.28876231 -378.91186523 662.91210938 C-386.06402223 635.73057847 -379.52634788 613.07749059 -373.0246582 586.38378906 C-372.20369718 583.00484379 -371.3923777 579.62369148 -370.58203125 576.2421875 C-370.32895706 575.21608368 -370.07588287 574.18997986 -369.81513977 573.13278198 C-368.2694201 566.65898163 -367.10276592 560.57958765 -368.9375 554.01953125 C-369.11869385 553.33729492 -369.2998877 552.65505859 -369.48657227 551.95214844 C-369.77165649 550.89302246 -369.77165649 550.89302246 -370.0625 549.8125 C-377.86692526 517.99419606 -359.23058799 479.54962614 -343.63378906 452.52441406 C-340.9853522 448.18343948 -338.1145041 444.06581861 -335.0625 440 C-334.06863281 438.66582031 -334.06863281 438.66582031 -333.0546875 437.3046875 C-323.46366093 424.91789609 -312.28320051 413.21933925 -300.390625 403.04296875 C-297.21983927 400.26055107 -294.14523506 397.37927292 -291.0625 394.5 C-287.31857145 391.0036936 -283.57272639 387.52756617 -279.6875 384.1875 C-276.21429865 381.19979992 -273.01070199 377.98911727 -269.82421875 374.69921875 C-268.0625 373 -268.0625 373 -265.0625 371 C-263.36418607 361.46802179 -266.22596094 352.20184057 -271.25 344.125 C-274.77486038 339.63783111 -279.6033455 336.8730562 -285.10546875 335.484375 C-291.27283058 334.94273045 -295.38667982 338.37826645 -300.0625 342 C-300.92875 342.61875 -301.795 343.2375 -302.6875 343.875 C-305.42599161 346.32522934 -307.72785585 349.00961519 -310.125 351.7890625 C-318.57116872 361.42723084 -328.38323056 371.12099559 -341.76171875 372.3359375 C-352.72749048 372.44333977 -362.21985313 371.19750327 -371.0625 364 C-379.14604944 356.03862008 -382.93948924 346.59790921 -383.375 335.3125 C-383.26110703 331.23370814 -382.41943291 328.41348904 -380.0625 325 C-373.40912388 319.78519169 -365.07651351 320.88329107 -357.0625 321 C-357.145 319.741875 -357.2275 318.48375 -357.3125 317.1875 C-357.3125 310.53017125 -355.48917071 303.63479757 -350.921875 298.67578125 C-350.30828125 298.12277344 -349.6946875 297.56976563 -349.0625 297 C-348.75957031 297.67546875 -348.45664062 298.3509375 -348.14453125 299.046875 C-345.32738102 305.04523795 -343.27443961 309.24948426 -336.91015625 311.89453125 C-324.82481839 316.07571449 -311.19655381 314.46667776 -299.54296875 309.5 C-297.4950588 308.46985425 -295.46246462 307.40817729 -293.453125 306.3046875 C-291.0625 305 -291.0625 305 -288.0625 304 C-286.97507306 301.78566059 -286.97507306 301.78566059 -286.0625 299 C-285.5675 298.01 -285.0725 297.02 -284.5625 296 C-279.5846614 284.40188875 -280.53219222 270.74834169 -282.3125 258.5625 C-282.44599854 257.64525146 -282.57949707 256.72800293 -282.71704102 255.78295898 C-284.29894569 245.60040756 -286.70569205 235.83419254 -294.625 228.6875 C-302.11144675 223.50457533 -313.47778107 225.67160178 -322 227.171875 C-324.01459366 227.54735878 -326.02486021 227.93857484 -328.03369141 228.34375 C-330.08550025 228.75460558 -332.14141283 229.1360817 -334.19921875 229.515625 C-335.5289813 229.77432324 -336.85842267 230.03467917 -338.1875 230.296875 C-339.36570312 230.52729492 -340.54390625 230.75771484 -341.7578125 230.99511719 C-346.12799284 232.32399295 -349.79819078 234.22650323 -352.48828125 238 C-352.92720703 238.99 -352.92720703 238.99 -353.375 240 C-353.68050781 240.66 -353.98601562 241.32 -354.30078125 242 C-358.17366125 252.16879261 -355.78735708 263.58925545 -354.0625 274 C-360.10229442 271.85551039 -364.17883626 268.30913901 -367.36328125 262.71484375 C-370.74880063 255.34056699 -371.20295933 249.03739497 -371.0625 241 C-371.75214844 241.2165625 -372.44179688 241.433125 -373.15234375 241.65625 C-387.19280602 245.81638697 -387.19280602 245.81638697 -394.125 242.5625 C-402.66406243 235.11353064 -409.60211236 226.54829611 -411.0625 215 C-411.15789567 209.38225494 -409.92979921 205.13711078 -406.0625 201 C-402.19581726 198.70284167 -398.14854377 196.87037215 -394.0625 195 C-391.80843504 193.88316691 -389.55822659 192.75850655 -387.3125 191.625 C-385.5625 190.75 -383.8125 189.875 -382.0625 189 C-391.01940567 189.50200946 -399.90208144 190.24063769 -408.80615234 191.33935547 C-413.26320462 191.87170603 -417.57318502 192.0886049 -422.0625 192 C-421.78807602 185.3040548 -421.12533823 179.49783096 -417.0625 174 C-411.99548442 169.81042344 -406.93060128 168.14362393 -400.51171875 167.33203125 C-399.68381332 167.21089462 -398.8559079 167.089758 -398.00291443 166.96495056 C-396.20076629 166.70283029 -394.39741358 166.44888812 -392.59307861 166.20227051 C-387.61994976 165.52048178 -382.65661722 164.77202416 -377.69140625 164.03515625 C-376.08951447 163.80002823 -376.08951447 163.80002823 -374.45526123 163.56015015 C-361.66251139 161.67174333 -348.90744651 159.561848 -336.15591431 157.4156189 C-332.23139759 156.75559856 -328.3044459 156.11064671 -324.37768555 155.46411133 C-321.94176417 155.05497462 -319.50596698 154.64509761 -317.0703125 154.234375 C-315.95861191 154.05333725 -314.84691132 153.8722995 -313.70152283 153.68577576 C-306.42820976 152.43982318 -299.84403151 151.07693753 -294.25 145.9375 C-293.57582031 145.32390625 -292.90164063 144.7103125 -292.20703125 144.078125 C-289.89153051 141.83432464 -287.67120617 139.51260167 -285.4375 137.1875 C-272.22573563 123.95568743 -255.80762033 115.53597212 -238.0625 110 C-238.20558594 108.329375 -238.20558594 108.329375 -238.3515625 106.625 C-240.09842477 83.78219213 -236.26058464 63.41405675 -221.1796875 45.40234375 C-201.48645148 23.05669771 -173.34427293 10.29758487 -143.87719727 7.13256836 C-140.34575947 6.96624251 -136.85441685 7.14045933 -133.328125 7.32421875 C-112.34849871 8.31334147 -97.94175179 5.53774679 -79.05566406 -3.63720703 C-56.13251633 -14.07415733 -21.51953205 -14.05357195 0 0 Z M-114.0625 144 C-121.32984481 153.8165491 -123.570997 163.90859103 -122.0625 176 C-120.8586629 180.29736273 -119.18542352 184.08357213 -117.0625 188 C-116.71703125 188.68320312 -116.3715625 189.36640625 -116.015625 190.0703125 C-115.0287274 191.94579911 -115.0287274 191.94579911 -113.0625 194 C-110.64585142 194.61004574 -110.64585142 194.61004574 -108.0625 194 C-105.91031079 191.83003275 -105.91031079 191.83003275 -104.125 188.9375 C-103.42890625 187.92816406 -102.7328125 186.91882813 -102.015625 185.87890625 C-101.37109375 184.92886719 -100.7265625 183.97882813 -100.0625 183 C-92.06375079 171.65345969 -75.76836299 161.73433676 -62.0625 159 C-64.10208418 170.13030226 -68.66431855 177.87682596 -75.75 186.5625 C-81.12003733 193.33552006 -83.95912475 200.33262737 -83.0625 209 C-82.43991538 210.35447799 -81.78156444 211.69417897 -81.0625 213 C-79.72878287 211.52117938 -78.39555335 210.041919 -77.0625 208.5625 C-76.22460938 207.64210938 -75.38671875 206.72171875 -74.5234375 205.7734375 C-73.08542478 204.15281999 -71.67754837 202.50255109 -70.3515625 200.7890625 C-65.22391264 194.31329812 -58.76926505 190.15298854 -51.85205078 185.7800293 C-46.33300561 182.2108098 -41.4684708 178.60890187 -39.45849609 172.02001953 C-38.82574939 168.79230914 -38.68895772 165.52733231 -38.5 162.25 C-38.43522461 161.20392578 -38.43522461 161.20392578 -38.36914062 160.13671875 C-38.26360404 158.42468078 -38.1626009 156.71236439 -38.0625 155 C-33.07439313 161.56329852 -30.66426667 166.29695619 -31.28515625 174.65625 C-33.45506111 181.19867672 -39.38086146 184.94345017 -44.75 188.75 C-55.68701528 196.77205375 -67.88711284 206.30952594 -70.74609375 220.359375 C-70.85050781 221.23078125 -70.95492187 222.1021875 -71.0625 223 C-60.59367624 219.13947931 -51.17571419 213.67916139 -41.54711914 208.10253906 C-38.45150781 206.3206133 -35.33768667 204.60896041 -32.15234375 202.9921875 C-18.64630107 196.13149467 -9.05392834 188.46701318 -3.89453125 173.64453125 C-1.23013242 161.97371382 -2.17911599 149.77632542 -8.60546875 139.54296875 C-16.44938354 128.7194433 -27.40623233 122.94886326 -40.5 120.6875 C-67.02585753 117.37176781 -95.5938974 123.8648519 -114.0625 144 Z M-210.66162109 153.24755859 C-211.44552719 153.39210983 -212.22943329 153.53666107 -213.03709412 153.68559265 C-215.63793252 154.16686122 -218.23689512 154.6575698 -220.8359375 155.1484375 C-222.63943577 155.48431637 -224.44303629 155.81964658 -226.24673462 156.15444946 C-231.0040116 157.03919476 -235.75972255 157.93210554 -240.51519775 158.82647705 C-244.39416928 159.55456906 -248.27421444 160.27683525 -252.15433311 160.99878502 C-256.77774205 161.85916678 -261.40065524 162.72219569 -266.0234375 163.5859375 C-266.90665051 163.75088085 -267.78986351 163.9158242 -268.69984055 164.08576584 C-271.20169171 164.55364599 -273.70319888 165.02331886 -276.20458984 165.49365234 C-276.94447647 165.63188919 -277.6843631 165.77012604 -278.44667053 165.91255188 C-281.67718326 166.52182912 -284.88675765 167.14580026 -288.0625 168 C-287.01876275 173.34915341 -284.5485962 176.03838416 -280.484375 179.390625 C-270.83629412 185.80193036 -259.32623284 186.831315 -248.0625 186 C-227.59504394 181.86396673 -212.49097308 169.92122759 -201.0625 153 C-204.2223129 151.42009355 -207.31292926 152.60708652 -210.66162109 153.24755859 Z M87.9375 246 C88.65292969 246.27972656 89.36835937 246.55945313 90.10546875 246.84765625 C102.59239147 251.87150226 113.40788692 257.3519015 122.9375 267 C123.54980469 267.59039062 124.16210938 268.18078125 124.79296875 268.7890625 C129.43939158 273.61623862 132.35795611 279.20506256 135.51611328 285.04907227 C138.59454327 290.64364085 142.05997143 295.78918397 146.9375 300 C147.5975 300 148.2575 300 148.9375 300 C149.85338515 282.29288702 146.36061949 265.65815786 134.8125 251.625 C127.15565637 243.59370702 116.98918885 239.56868458 106.0625 238.6875 C98.9367151 238.89873868 92.75924164 240.64742442 87.9375 246 Z M46.9375 271 C46.0634155 273.93980479 45.74673112 275.50950825 46.87451172 278.40917969 C47.36709473 279.23836914 47.85967773 280.06755859 48.3671875 280.921875 C48.91117188 281.85644531 49.45515625 282.79101562 50.015625 283.75390625 C50.90507813 285.23697266 50.90507813 285.23697266 51.8125 286.75 C53.01967665 288.8272845 54.22539671 290.90541612 55.4296875 292.984375 C56.02749023 294.00724609 56.62529297 295.03011719 57.24121094 296.08398438 C78.30910213 332.30086584 76.36717719 365.46122378 73.9375 406 C83.70276343 398.49067909 86.73625553 387.68042718 89.6875 376.0625 C89.97753906 374.98548828 90.26757812 373.90847656 90.56640625 372.79882812 C96.74157778 349.24012579 98.67674988 323.89284882 86.05078125 302.1015625 C76.60685724 288.24116387 63.49282591 278.93436184 48.9375 271 C48.2775 271 47.6175 271 46.9375 271 Z M-66.0625 287 C-66.66553955 288.66832886 -66.66553955 288.66832886 -67.28076172 290.37036133 C-68.81405892 294.60071189 -70.3655431 298.82421818 -71.921875 303.04614258 C-72.58582869 304.85461837 -73.24520584 306.66478269 -73.89941406 308.47680664 C-78.3274374 320.72880658 -83.49127209 332.14658736 -89.74786377 343.56668091 C-92.05047258 347.8286827 -94.23132352 352.15230417 -96.421875 356.47265625 C-97.31886152 358.2337998 -98.21599697 359.99486751 -99.11328125 361.75585938 C-100.47274161 364.42719653 -101.83106305 367.09909526 -103.18701172 369.7722168 C-109.50012958 382.21078953 -115.83245244 394.24435852 -124.125 405.5 C-125.27224541 407.07283644 -126.41937761 408.64575547 -127.56640625 410.21875 C-128.14664551 411.01152344 -128.72688477 411.80429687 -129.32470703 412.62109375 C-132.08690208 416.40232845 -134.82404718 420.20155452 -137.5625 424 C-140.80450526 428.49414385 -144.04989501 432.98562434 -147.3125 437.46484375 C-153.60648088 446.11965767 -159.76343275 454.84943844 -165.75 463.72045898 C-168.38331931 467.61055171 -171.05333468 471.38467189 -174.0625 475 C-173.7325 475.66 -173.4025 476.32 -173.0625 477 C-161.09764609 469.47615493 -150.75483015 460.57098905 -140.43041992 450.97412109 C-137.34073019 448.11796915 -134.16804469 445.43004834 -130.875 442.8125 C-123.51832259 436.88658424 -116.74484302 430.32547735 -109.93164062 423.79003906 C-108.41579757 422.33834611 -106.88918833 420.89790089 -105.359375 419.4609375 C-81.61882196 396.65975887 -69.96195087 367.35026697 -64.75 335.375 C-64.62109375 334.59984039 -64.4921875 333.82468079 -64.359375 333.02603149 C-60.51770231 309.87777694 -60.51770231 309.87777694 -64.0625 287 C-64.7225 287 -65.3825 287 -66.0625 287 Z M-137.0625 306 C-137.87517904 307.62535808 -138.68781075 309.25073983 -139.50024414 310.8762207 C-140.21740173 312.3100414 -140.9353574 313.74346315 -141.65405273 315.17651367 C-143.49751005 318.85501435 -145.32942371 322.53804658 -147.12890625 326.23828125 C-158.27812992 349.08603181 -174.33398078 368.00195028 -194.28515625 383.79296875 C-197.43601374 386.29681472 -200.50032613 388.88918832 -203.5625 391.5 C-208.41133119 395.62189772 -213.31413066 399.66993194 -218.25 403.6875 C-221.38049666 406.26146392 -224.47422461 408.87569086 -227.5625 411.5 C-232.41209381 415.62101634 -237.31410806 419.66991354 -242.25 423.6875 C-245.38049666 426.26146392 -248.47422461 428.87569086 -251.5625 431.5 C-256.40930862 435.61864958 -261.30780731 439.66600799 -266.2421875 443.6796875 C-269.98603716 446.75980758 -273.67482228 449.90287248 -277.35839844 453.0546875 C-280.42774858 455.66721267 -283.55534244 458.12806296 -286.8125 460.5 C-292.13015896 464.59721264 -296.03791429 469.6677627 -300.0625 475 C-300.47145508 475.53544434 -300.88041016 476.07088867 -301.30175781 476.62255859 C-306.21983314 483.09859235 -310.68152027 489.72312732 -314.5625 496.875 C-314.88871338 497.46893555 -315.21492676 498.06287109 -315.55102539 498.67480469 C-317.83559497 503.04338306 -319.01241402 507.22210881 -320.0625 512 C-315.24420578 509.40089511 -311.10805893 506.56997135 -307 502.9375 C-300.76386705 497.54526618 -294.34123982 492.43755938 -287.83300781 487.37939453 C-285.46829853 485.53706036 -283.11446976 483.68110345 -280.76098633 481.82446289 C-279.00147111 480.43865865 -277.23738229 479.05884727 -275.47265625 477.6796875 C-273.29504047 475.97610636 -271.14213751 474.25198565 -268.99609375 472.5078125 C-261.23636952 466.30399722 -253.02894446 461.25228525 -244.47265625 456.21875 C-235.17841461 450.73373535 -226.12801314 444.85246733 -217.0625 439 C-216.41216797 438.58202148 -215.76183594 438.16404297 -215.09179688 437.73339844 C-203.42974357 430.21945992 -193.13460821 421.49734116 -183.0625 412 C-182.27875 411.27039063 -181.495 410.54078125 -180.6875 409.7890625 C-174.07193348 403.43339324 -168.56729726 396.30961662 -163.0625 389 C-162.62760254 388.43120117 -162.19270508 387.86240234 -161.74462891 387.27636719 C-150.99567844 373.16454826 -143.13446732 358.01222373 -138.0625 341 C-137.7221875 339.86433594 -137.381875 338.72867188 -137.03125 337.55859375 C-134.3779333 327.15415281 -134.76511437 316.654031 -135.0625 306 C-135.7225 306 -136.3825 306 -137.0625 306 Z " fill="#450C6F" transform="translate(605.0625,112)"/>
<path d="M0 0 C5.28 0 10.56 0 16 0 C16.43082886 2.20296753 16.43082886 2.20296753 16.87036133 4.45043945 C17.9378491 9.8927171 19.02044792 15.33189628 20.10766602 20.77026367 C20.57632347 23.12556362 21.04086495 25.48168643 21.5012207 27.83862305 C22.16320668 31.22408631 22.83988309 34.60632547 23.51953125 37.98828125 C23.82441216 39.57277824 23.82441216 39.57277824 24.13545227 41.18928528 C24.3354332 42.17007553 24.53541412 43.15086578 24.74145508 44.16137695 C24.91244217 45.02519485 25.08342926 45.88901276 25.25959778 46.77900696 C25.83849174 49.07648811 25.83849174 49.07648811 27.57865906 50.55241394 C29 52 29 52 29 56 C21.41 56 13.82 56 6 56 C6.33 54.35 6.66 52.7 7 51 C7.06371368 49.39696373 7.08644214 47.79162328 7.0625 46.1875 C7.041875 44.805625 7.02125 43.42375 7 42 C3.7 42 0.4 42 -3 42 C-2.67 40.35 -2.34 38.7 -2 37 C0.64 37 3.28 37 6 37 C5.81824219 36.19892822 5.63648438 35.39785645 5.44921875 34.57250977 C4.77065008 31.56049133 4.10079408 28.54669542 3.43652344 25.53149414 C3.00851539 23.60090975 2.57076087 21.67249438 2.1328125 19.74414062 C0.65568299 13.00913344 -0.36016482 6.89565568 0 0 Z " fill="#FFFFFF" transform="translate(609,897)"/>
<path d="M0 0 C7.59 0 15.18 0 23 0 C22.67 1.65 22.34 3.3 22 5 C21.34 5 20.68 5 20 5 C20 20.18 20 35.36 20 51 C21.485 51.495 21.485 51.495 23 52 C23 53.32 23 54.64 23 56 C15.41 56 7.82 56 0 56 C0 54.68 0 53.36 0 52 C1.485 51.505 1.485 51.505 3 51 C2.93309132 44.64585737 2.84332165 38.2923345 2.73754883 31.9387207 C2.70426678 29.77668625 2.67624515 27.61456423 2.65356445 25.45239258 C2.62007892 22.34678782 2.567766 19.24198802 2.51171875 16.13671875 C2.50213387 14.68346443 2.50213387 14.68346443 2.49235535 13.20085144 C2.47256119 12.3001442 2.45276703 11.39943695 2.43237305 10.47143555 C2.42126999 9.67867722 2.41016693 8.88591888 2.39872742 8.06913757 C1.90919074 5.52875863 0.96094555 4.62487516 -1 3 C-0.67 2.01 -0.34 1.02 0 0 Z " fill="#FFFFFF" transform="translate(461,897)"/>
<path d="M0 0 C6.6 0 13.2 0 20 0 C20 16.83 20 33.66 20 51 C21.32 51.33 22.64 51.66 24 52 C23.67 53.32 23.34 54.64 23 56 C15.41 56 7.82 56 0 56 C0 54.68 0 53.36 0 52 C1.485 51.505 1.485 51.505 3 51 C2.93309132 44.64585737 2.84332165 38.2923345 2.73754883 31.9387207 C2.70426678 29.77668625 2.67624515 27.61456423 2.65356445 25.45239258 C2.62007892 22.34678782 2.567766 19.24198802 2.51171875 16.13671875 C2.50213387 14.68346443 2.50213387 14.68346443 2.49235535 13.20085144 C2.47256119 12.3001442 2.45276703 11.39943695 2.43237305 10.47143555 C2.42126999 9.67867722 2.41016693 8.88591888 2.39872742 8.06913757 C1.90919074 5.52875863 0.96094555 4.62487516 -1 3 C-0.67 2.01 -0.34 1.02 0 0 Z " fill="#FFFFFF" transform="translate(230,897)"/>
<path d="M0 0 C6.6 0 13.2 0 20 0 C20 18.48 20 36.96 20 56 C13.4 56 6.8 56 0 56 C0 54.68 0 53.36 0 52 C1.485 51.505 1.485 51.505 3 51 C2.93309132 44.64585737 2.84332165 38.2923345 2.73754883 31.9387207 C2.70426678 29.77668625 2.67624515 27.61456423 2.65356445 25.45239258 C2.62007892 22.34678782 2.567766 19.24198802 2.51171875 16.13671875 C2.50213387 14.68346443 2.50213387 14.68346443 2.49235535 13.20085144 C2.47256119 12.3001442 2.45276703 11.39943695 2.43237305 10.47143555 C2.42126999 9.67867722 2.41016693 8.88591888 2.39872742 8.06913757 C1.90919074 5.52875863 0.96094555 4.62487516 -1 3 C-0.67 2.01 -0.34 1.02 0 0 Z " fill="#FFFFFF" transform="translate(312,897)"/>
<path d="M0 0 C7.59 0 15.18 0 23 0 C22 5 22 5 21 8 C21.50752678 10.47164429 22.08843293 12.84595417 22.7578125 15.2734375 C23.14060229 16.75357597 23.5220681 18.23405736 23.90234375 19.71484375 C24.5059208 22.0331837 25.11756828 24.34800445 25.75341797 26.65771484 C28.53082984 36.82106628 29.92512356 44.76195145 26 55 C25 56 25 56 22.71484375 56.09765625 C21.34005859 56.08025391 21.34005859 56.08025391 19.9375 56.0625 C19.01839844 56.05347656 18.09929688 56.04445313 17.15234375 56.03515625 C16.44207031 56.02355469 15.73179687 56.01195312 15 56 C11.93157376 45.24575612 9.04157416 34.44691404 6.23706055 23.62112427 C5.87035826 22.20577318 5.50284367 20.79063231 5.13452148 19.3757019 C4.61179608 17.36571926 4.09246603 15.35489131 3.57421875 13.34375 C3.11921997 11.58321289 3.11921997 11.58321289 2.6550293 9.78710938 C2 7 2 7 2 5 C1.34 5 0.68 5 0 5 C0 3.35 0 1.7 0 0 Z " fill="#FFFFFF" transform="translate(519,897)"/>
<path d="M0 0 C7.59 0 15.18 0 23 0 C22 5 22 5 21 8 C21.50752678 10.47164429 22.08843293 12.84595417 22.7578125 15.2734375 C23.14060229 16.75357597 23.5220681 18.23405736 23.90234375 19.71484375 C24.5059208 22.0331837 25.11756828 24.34800445 25.75341797 26.65771484 C28.53082984 36.82106628 29.92512356 44.76195145 26 55 C25 56 25 56 22.71484375 56.09765625 C21.34005859 56.08025391 21.34005859 56.08025391 19.9375 56.0625 C19.01839844 56.05347656 18.09929687 56.04445313 17.15234375 56.03515625 C16.44207031 56.02355469 15.73179687 56.01195312 15 56 C11.93157376 45.24575612 9.04157416 34.44691404 6.23706055 23.62112427 C5.87035826 22.20577318 5.50284367 20.79063231 5.13452148 19.3757019 C4.61179608 17.36571926 4.09246603 15.35489131 3.57421875 13.34375 C3.11921997 11.58321289 3.11921997 11.58321289 2.6550293 9.78710938 C2 7 2 7 2 5 C1.34 5 0.68 5 0 5 C0 3.35 0 1.7 0 0 Z " fill="#FFFFFF" transform="translate(384,897)"/>
<path d="M0 0 C11.94355301 -0.56475645 11.94355301 -0.56475645 16 3 C19.35447578 6.72719531 20.86801731 9.25122932 21.25 14.3125 C20.79855577 20.9713024 17.8059884 24.58368634 13 29 C13.78375 29.45375 14.5675 29.9075 15.375 30.375 C18 32 18 32 20 34 C20.1953125 37.0390625 20.1953125 37.0390625 20.125 40.625 C20.10695313 41.81351563 20.08890625 43.00203125 20.0703125 44.2265625 C20.04710937 45.14179687 20.02390625 46.05703125 20 47 C22.475 46.505 22.475 46.505 25 46 C25.88230697 48.41698637 26.21117289 49.52987755 25.13671875 51.921875 C22.85122574 54.80492278 21.19147573 56.6964393 17.546875 57.625 C12.9811632 57.84371673 10.67925676 57.49904578 6.9375 54.75 C3.15198095 49.37700522 3.72957287 43.52234464 3.4765625 37.1171875 C3.31929687 36.08851563 3.16203125 35.05984375 3 34 C2.01 33.34 1.02 32.68 0 32 C-0.375 29.5 -0.375 29.5 0 27 C0.99 26.34 1.98 25.68 3 25 C3.46262531 23.10574827 3.46262531 23.10574827 3.3984375 20.9375 C3.40230469 20.14085937 3.40617188 19.34421875 3.41015625 18.5234375 C3.39855469 17.69070313 3.38695312 16.85796875 3.375 16 C3.38660156 15.16726563 3.39820313 14.33453125 3.41015625 13.4765625 C3.40628906 12.67992187 3.40242187 11.88328125 3.3984375 11.0625 C3.39505371 10.33160156 3.39166992 9.60070312 3.38818359 8.84765625 C3.13826354 6.58645877 3.13826354 6.58645877 0 5 C-0.1875 2.375 -0.1875 2.375 0 0 Z " fill="#FFFFFF" transform="translate(251,897)"/>
<path d="M0 0 C0 12.87 0 25.74 0 39 C1.98 39 3.96 39 6 39 C6 40.32 6 41.64 6 43 C4.02 43 2.04 43 0 43 C0.37409251 48.15998377 0.37409251 48.15998377 3.0625 52.4375 C3.701875 52.953125 4.34125 53.46875 5 54 C4.67 54.66 4.34 55.32 4 56 C-3.26 56 -10.52 56 -18 56 C-17.67 54.35 -17.34 52.7 -17 51 C-16.01 50.505 -16.01 50.505 -15 50 C-15.00112793 48.84064941 -15.00225586 47.68129883 -15.00341797 46.48681641 C-14.99971895 42.14388316 -14.95667304 37.80204306 -14.90234375 33.45947266 C-14.88428799 31.58779998 -14.87659615 29.71599516 -14.87988281 27.84423828 C-14.89963149 9.32984918 -14.89963149 9.32984918 -10.06298828 1.46240234 C-8 0 -8 0 0 0 Z " fill="#FFFFFF" transform="translate(832,897)"/>
<path d="M0 0 C6.80212035 0.90067601 11.20204308 1.96214524 16 7 C18.91696587 11.69120284 18.48944918 16.65490418 18 22 C15.86512844 28.40461467 11.21093493 31.72368756 5.5625 34.984375 C3.7990625 35.85835937 3.7990625 35.85835937 2 36.75 C0.824375 37.34296875 -0.35125 37.9359375 -1.5625 38.546875 C-4.78496421 39.90909851 -7.54032872 40.59918442 -11 41 C-8.83735301 37.4233146 -7.25153691 35.20020284 -3.9375 32.5625 C0.6418317 28.56776383 1.82227444 25.47123154 2.24609375 19.578125 C2.44271798 11.9954661 2.44271798 11.9954661 0 5 C-0.125 2.25 -0.125 2.25 0 0 Z " fill="#FFFFFF" transform="translate(744,896)"/>
<path d="M0 0 C1.32 0.33 2.64 0.66 4 1 C3.54202381 7.64065475 2.33628163 12.0234443 -2.84765625 16.6484375 C-7.97698196 19.86939339 -14.89347219 18.1181866 -20.5 16.875 C-21.3146875 16.66617188 -22.129375 16.45734375 -22.96875 16.2421875 C-23.6390625 16.16226563 -24.309375 16.08234375 -25 16 C-25.66 16.66 -26.32 17.32 -27 18 C-28.32 18 -29.64 18 -31 18 C-31.45675183 12.29060212 -30.62105556 9.44872541 -27 5 C-20.3261663 0.55077753 -9.69238042 3.04696172 -2 4 C-1.34 2.68 -0.68 1.36 0 0 Z " fill="#FFFFFF" transform="translate(760,935)"/>
<path d="M0 0 C3.5625 0.5 3.5625 0.5 5.9375 1.9375 C8.3279976 5.70713083 8.8548476 9.06362522 8.5625 13.5 C7.03990777 19.01939682 3.73331142 22.97697513 -0.6875 26.51171875 C-2.4375 27.5 -2.4375 27.5 -5.375 27.375 C-6.3959375 26.941875 -6.3959375 26.941875 -7.4375 26.5 C-5.88249019 22.68315774 -3.40154505 20.30804268 -0.4375 17.5 C-1.241875 17.04625 -2.04625 16.5925 -2.875 16.125 C-5.4375 14.5 -5.4375 14.5 -6.4375 12.5 C-6.88560544 5.55436573 -6.88560544 5.55436573 -5.375 2 C-3.4375 0.5 -3.4375 0.5 0 0 Z " fill="#FFFFFF" transform="translate(681.4375,895.5)"/>
<path d="M0 0 C2.39105748 2.39105748 2.69448945 4.18218042 3.03515625 7.49023438 C2.96186437 12.72246029 1.35642178 17.72773141 0 22.75 C-0.59177997 24.97172566 -1.17548329 27.19562277 -1.75 29.421875 C-2.01296875 30.39737305 -2.2759375 31.37287109 -2.546875 32.37792969 C-3.00749891 35.04339348 -2.96052787 36.49735296 -2 39 C-0.52109931 40.73026102 -0.52109931 40.73026102 1 42 C0.67 42.99 0.34 43.98 0 45 C-4.62 45 -9.24 45 -14 45 C-13.67 43.35 -13.34 41.7 -13 40 C-12.01 39.34 -11.02 38.68 -10 38 C-9.04828287 35.13291485 -8.26595351 32.36578304 -7.5625 29.4375 C-7.24490723 28.17595093 -7.24490723 28.17595093 -6.92089844 26.88891602 C-5.29104954 20.36402243 -3.74217831 13.81671906 -2.25610352 7.25756836 C-1.10264704 2.20529407 -1.10264704 2.20529407 0 0 Z " fill="#FFFFFF" transform="translate(607,908)"/>
<path d="M0 0 C0 2.66666667 0 5.33333333 0 8 C0.350625 8.5775 0.70125 9.155 1.0625 9.75 C2.45913028 13.10191266 1.82142323 15.52474789 1 19 C-0.125 20.9375 -0.125 20.9375 -2 22 C-5.4375 22.5 -5.4375 22.5 -9 22 C-12.14129441 19.34198165 -12.89768585 17.69062052 -13.5 13.625 C-12.90665573 9.32325403 -11.90912361 6.26327779 -9 3 C-6.19474769 1.23187883 -3.3736573 0 0 0 Z " fill="#FFFFFF" transform="translate(742,896)"/>
<path d="M0 0 C4.62 0 9.24 0 14 0 C13 5 13 5 11.03955078 6.95068359 C8.5098437 9.49250323 8.11488009 11.30739406 7.3671875 14.7890625 C6.99400391 16.44808594 6.99400391 16.44808594 6.61328125 18.140625 C6.36964844 19.29046875 6.12601563 20.4403125 5.875 21.625 C5.3787607 23.91024558 4.87645627 26.1941852 4.3671875 28.4765625 C4.15175293 29.48799316 3.93631836 30.49942383 3.71435547 31.54150391 C3 34 3 34 1 36 C-1.49681597 28.08468874 -0.36258167 22.49266005 1.83203125 14.66601562 C2.40248356 12.40055691 2.91230409 10.3356344 3 8 C1.16252002 5.65618011 1.16252002 5.65618011 -1 4 C-0.67 2.68 -0.34 1.36 0 0 Z " fill="#FFFFFF" transform="translate(547,897)"/>
<path d="M0 0 C4.62 0 9.24 0 14 0 C13 5 13 5 11.03955078 6.95068359 C8.5098437 9.49250323 8.11488009 11.30739406 7.3671875 14.7890625 C6.99400391 16.44808594 6.99400391 16.44808594 6.61328125 18.140625 C6.36964844 19.29046875 6.12601562 20.4403125 5.875 21.625 C5.3787607 23.91024558 4.87645627 26.1941852 4.3671875 28.4765625 C4.15175293 29.48799316 3.93631836 30.49942383 3.71435547 31.54150391 C3 34 3 34 1 36 C-1.49681597 28.08468874 -0.36258167 22.49266005 1.83203125 14.66601562 C2.40248356 12.40055691 2.91230409 10.3356344 3 8 C1.16252002 5.65618011 1.16252002 5.65618011 -1 4 C-0.67 2.68 -0.34 1.36 0 0 Z " fill="#FFFFFF" transform="translate(412,897)"/>
<path d="M0 0 C0.33 0 0.66 0 1 0 C1.69086849 6.57188653 -0.36774194 10.07255668 -4 15.4375 C-4.47695313 16.16904297 -4.95390625 16.90058594 -5.4453125 17.65429688 C-6.61605308 19.44552996 -7.80612109 21.22410512 -9 23 C-5.7 23.33 -2.4 23.66 1 24 C1 25.32 1 26.64 1 28 C-3.95 28 -8.9 28 -14 28 C-15 24 -15 24 -13.84765625 21.40625 C-13.25855469 20.4471875 -12.66945313 19.488125 -12.0625 18.5 C-11.42183594 17.45328125 -10.78117188 16.4065625 -10.12109375 15.328125 C-2.85594873 3.92867094 -2.85594873 3.92867094 0 0 Z " fill="#FFFFFF" transform="translate(815,912)"/>
<path d="M0 0 C1.32 0 2.64 0 4 0 C4 5.94 4 11.88 4 18 C-0.95 18 -5.9 18 -11 18 C-11 16.35 -11 14.7 -11 13 C-9.39125 12.2884375 -9.39125 12.2884375 -7.75 11.5625 C-3.03843394 8.93434449 -1.69220719 4.91896252 0 0 Z " fill="#FFFFFF" transform="translate(345,935)"/>
<path d="M0 0 C4.95 0 9.9 0 15 0 C15 5.61 15 11.22 15 17 C13.35 16.67 11.7 16.34 10 16 C8.84765625 14.2578125 8.84765625 14.2578125 8.0625 12.125 C6.56415298 8.68435129 6.14360971 8.0883752 2.75 6 C1.8425 5.67 0.935 5.34 0 5 C0 3.35 0 1.7 0 0 Z " fill="#FFFFFF" transform="translate(334,897)"/>
<path d="M0 0 C1.32 0.33 2.64 0.66 4 1 C4 7.93 4 14.86 4 22 C2.68 22.33 1.36 22.66 0 23 C-0.45375 21.865625 -0.9075 20.73125 -1.375 19.5625 C-2.57095806 15.95278308 -2.57095806 15.95278308 -5 15 C-5.31245735 10.41729218 -4.92744156 8.49041109 -2 5 C-1.28837557 3.35202764 -0.60968047 1.68834592 0 0 Z " fill="#FFFFFF" transform="translate(339,913)"/>
</svg>
