<?xml version="1.0" encoding="UTF-8"?>
<svg version="1.1" xmlns="http://www.w3.org/2000/svg" width="100" height="100">
<path d="M0 0 C0 0.66 0 1.32 0 2 C1.670625 2.12375 1.670625 2.12375 3.375 2.25 C4.57125 2.4975 5.7675 2.745 7 3 C8.0625 4.8125 8.0625 4.8125 9 7 C9.94875 7.61875 10.8975 8.2375 11.875 8.875 C15.35445678 11.24103061 17.00578346 13.31836947 19 17 C19 18.32 19 19.64 19 21 C18.01 21.33 17.02 21.66 16 22 C16.350625 22.969375 16.70125 23.93875 17.0625 24.9375 C18.47939018 29.82676893 18.2988115 35.40237699 16 40 C15.34 40 14.68 40 14 40 C13.67 38.35 13.34 36.7 13 35 C12.67386719 35.83144531 12.34773438 36.66289063 12.01171875 37.51953125 C11.57472656 38.60621094 11.13773438 39.69289062 10.6875 40.8125 C10.25824219 41.89144531 9.82898438 42.97039063 9.38671875 44.08203125 C8.13865853 46.70823121 7.32450895 48.2969536 5 50 C4.01 50 3.02 50 2 50 C2.33 48.68 2.66 47.36 3 46 C2.21625 46.495 1.4325 46.99 0.625 47.5 C-2 49 -2 49 -4 49 C-4 49.66 -4 50.32 -4 51 C-5.299375 51.1546875 -5.299375 51.1546875 -6.625 51.3125 C-10.16941605 52.03451068 -12.81082345 53.33293044 -16 55 C-16.66 55 -17.32 55 -18 55 C-17.67 53.68 -17.34 52.36 -17 51 C-21.0042343 54.49087093 -22.62671065 56.64951939 -23 62 C-23.99 61.67 -24.98 61.34 -26 61 C-26.33 63.64 -26.66 66.28 -27 69 C-30 68 -30 68 -31.1640625 65.859375 C-33.48143514 57.9326611 -32.98398035 49.17111952 -29.15625 41.84375 C-27.61746149 39.39000616 -25.94097788 37.14893979 -24 35 C-24.33 34.67 -24.66 34.34 -25 34 C-25.804375 34.185625 -26.60875 34.37125 -27.4375 34.5625 C-28.283125 34.706875 -29.12875 34.85125 -30 35 C-30.66 34.34 -31.32 33.68 -32 33 C-31.625 30.875 -31.625 30.875 -31 29 C-28.92446352 28.4465236 -27.15634036 28 -25 28 C-25 26.68 -25 25.36 -25 24 C-25.66 23.67 -26.32 23.34 -27 23 C-27.66 24.32 -28.32 25.64 -29 27 C-29.66 26.67 -30.32 26.34 -31 26 C-31 25.34 -31 24.68 -31 24 C-31.66 24 -32.32 24 -33 24 C-33.99 21.69 -34.98 19.38 -36 17 C-33.16363401 15.10908934 -31.79086771 14.6097423 -28.5625 14 C-25.38586799 13.39799867 -22.84227209 12.55386173 -20 11 C-20.12375 10.278125 -20.2475 9.55625 -20.375 8.8125 C-20 6 -20 6 -17.625 3.3125 C-12.67191495 -0.4258999 -5.9384089 -1.88824983 0 0 Z M-8 13 C-8.33 14.32 -8.66 15.64 -9 17 C-7.68 16.34 -6.36 15.68 -5 15 C-4.67 15.66 -4.34 16.32 -4 17 C-4 16.34 -4 15.68 -4 15 C-3.34 15 -2.68 15 -2 15 C-1.67 15.66 -1.34 16.32 -1 17 C-1 16.01 -1 15.02 -1 14 C-3.31 13.67 -5.62 13.34 -8 13 Z M6 30 C7 33 7 33 7 33 Z M-7 31 C-6 33 -6 33 -6 33 Z M-8 34 C-7 36 -7 36 -7 36 Z M-16 36 C-16.99 37.485 -16.99 37.485 -18 39 C-17.01 38.67 -16.02 38.34 -15 38 C-15.33 37.34 -15.66 36.68 -16 36 Z M-10 37 C-9 39 -9 39 -9 39 Z M-4 37 C-3 39 -3 39 -3 39 Z M-5 39 C-4 41 -4 41 -4 41 Z M-7 42 C-8.69088222 43.97956942 -10.35830472 45.97945196 -12 48 C-9.37812506 46.95125002 -8.20628639 46.35068687 -6.75 43.875 C-6.5025 43.25625 -6.255 42.6375 -6 42 C-6.33 42 -6.66 42 -7 42 Z M3 44 C4 46 4 46 4 46 Z M-14 48 C-14.33 48.66 -14.66 49.32 -15 50 C-14.01 49.67 -13.02 49.34 -12 49 C-12.66 48.67 -13.32 48.34 -14 48 Z M-26 53 C-25 55 -25 55 -25 55 Z " fill="#F5F4F6" transform="translate(55,14)"/>
<path d="M0 0 C0.66 0 1.32 0 2 0 C2.33 3.3 2.66 6.6 3 10 C2.01 9.67 1.02 9.34 0 9 C-0.33 11.64 -0.66 14.28 -1 17 C-1.99 16.67 -2.98 16.34 -4 16 C-4.33 15.01 -4.66 14.02 -5 13 C-4.34 13 -3.68 13 -3 13 C-2.67 9.7 -2.34 6.4 -2 3 C-1.01 3 -0.02 3 1 3 C0.67 2.01 0.34 1.02 0 0 Z " fill="#D2D1DB" transform="translate(29,66)"/>
<path d="M0 0 C0.33 0 0.66 0 1 0 C1 1.98 1 3.96 1 6 C1.66 6 2.32 6 3 6 C3 4.35 3 2.7 3 1 C3.66 1 4.32 1 5 1 C4.67 3.97 4.34 6.94 4 10 C3.34 10 2.68 10 2 10 C1.67 9.34 1.34 8.68 1 8 C-0.32 8.33 -1.64 8.66 -3 9 C-3 8.01 -3 7.02 -3 6 C-2.01 6 -1.02 6 0 6 C-0.2784375 4.7934375 -0.2784375 4.7934375 -0.5625 3.5625 C-0.706875 2.716875 -0.85125 1.87125 -1 1 C-0.67 0.67 -0.34 0.34 0 0 Z " fill="#E1DFE6" transform="translate(49,41)"/>
<path d="M0 0 C0.66 0.226875 1.32 0.45375 2 0.6875 C3.32 0.6875 4.64 0.6875 6 0.6875 C6 1.3475 6 2.0075 6 2.6875 C4.700625 2.8421875 4.700625 2.8421875 3.375 3 C-0.16941605 3.72201068 -2.81082345 5.02043044 -6 6.6875 C-6.66 6.6875 -7.32 6.6875 -8 6.6875 C-6.49682799 3.0548343 -4.40521133 -0.68831427 0 0 Z " fill="#D6D5DE" transform="translate(45,62.3125)"/>
<path d="M0 0 C2.66666667 0 5.33333333 0 8 0 C8.33 0.99 8.66 1.98 9 3 C8.01 3.33 7.02 3.66 6 4 C6 4.66 6 5.32 6 6 C4.02 5.34 2.04 4.68 0 4 C0 2.68 0 1.36 0 0 Z " fill="#E1E0E6" transform="translate(45,29)"/>
<path d="M0 0 C0.66 0 1.32 0 2 0 C2 1.32 2 2.64 2 4 C2.99 4.33 3.98 4.66 5 5 C3.1875 7.5 3.1875 7.5 1 10 C0.01 10 -0.98 10 -2 10 C-1.34 6.7 -0.68 3.4 0 0 Z " fill="#DEDDE4" transform="translate(59,54)"/>
<path d="M0 0 C0.33 0 0.66 0 1 0 C1 2.31 1 4.62 1 7 C-4.75 9 -4.75 9 -7 9 C-7.33 9.66 -7.66 10.32 -8 11 C-7.67 9.68 -7.34 8.36 -7 7 C-4.92446352 6.4465236 -3.15634036 6 -1 6 C-1.020625 5.195625 -1.04125 4.39125 -1.0625 3.5625 C-1 1 -1 1 0 0 Z " fill="#DBDAE1" transform="translate(31,36)"/>
<path d="M0 0 C0.598125 0.20625 1.19625 0.4125 1.8125 0.625 C0.8225 0.955 -0.1675 1.285 -1.1875 1.625 C-0.8575 2.285 -0.5275 2.945 -0.1875 3.625 C-0.8475 3.625 -1.5075 3.625 -2.1875 3.625 C-2.5175 4.615 -2.8475 5.605 -3.1875 6.625 C-3.8475 4.975 -4.5075 3.325 -5.1875 1.625 C-2.1875 -0.375 -2.1875 -0.375 0 0 Z " fill="#D6D5DE" transform="translate(24.1875,29.375)"/>
</svg>
